<?xml version="1.0" encoding="utf-8"?>
<!-- Generator: Adobe Illustrator 22.0.0, SVG Export Plug-In . SVG Version: 6.00 Build 0)  -->
<svg version="1.1" id="Capa_1" xmlns="http://www.w3.org/2000/svg" xmlns:xlink="http://www.w3.org/1999/xlink" x="0px" y="0px"
	 viewBox="0 0 413 227.7" style="enable-background:new 0 0 413 227.7;" xml:space="preserve">
<style type="text/css">
	.st0{fill:#4A8495;}
	.st1{fill:#FFFFFF;}
</style>
<path class="st0" d="M407.5,50c-4.1-9.5-9.9-18.1-17.2-25.3c-7.3-7.3-15.8-13-25.3-17.2c-9.6-4.2-20.1-6.3-31.1-6.3
	c-8.1,0-15.8,1.1-23.1,3.3c-7.2,2.2-14.1,5.3-20.3,9.4c-6.2,4-11.9,8.9-16.8,14.4c-2.9,3.3-5.6,6.8-8,10.6c-0.8-1.9-1.8-3.7-2.8-5.5
	c-3.7-6.6-8.5-12.3-14.1-17.1c-5.6-4.8-12.1-8.6-19.2-11.3c-14.4-5.4-31.2-5.4-45.5,0c-7.1,2.7-13.6,6.5-19.2,11.3
	c-5.6,4.8-10.4,10.6-14.1,17.1c-3.8,6.6-6.3,13.9-7.4,21.6l-0.4,1.2v34.9c-5,30.8-31.3,53.2-62.6,53.2c-35,0-63.4-28.5-63.4-63.4
	c0-35,28.5-63.4,63.4-63.4c13.5,0,26.4,4.2,37.4,12.2l1.3,0.9l6.6-6.4l4.8-5.4C115.4,5,100,0.9,79.9,0.9C35.8,0.9-0.2,36.8-0.2,81
	c0,44.2,35.9,80.1,80.1,80.1c30.5,0,57.9-16.9,71.8-44.5l0.4-0.7c4.2-8.8,6.8-18.2,7.7-28c0.2-2.3,0.3-4.6,0.3-6.9l0-1.3
	c0-1.8-0.1-3.6-0.3-5v-9.5c0-13.3,4.4-24.3,13.6-33.4c9.1-9.1,20-13.6,33.4-13.6c13.3,0,24.3,4.4,33.4,13.6
	c4.3,4.3,7.6,9.3,9.9,14.7c2.3,5.5,3.5,11.4,3.7,17.4l0.2,164.3l16.7,0.2l0.1-97.7c0.9,1.2,1.9,2.3,2.9,3.5
	c5,5.7,10.7,10.5,16.9,14.5c6.2,3.9,13,7,20.3,9.2c7.3,2.2,15,3.3,23.1,3.3c11.1,0,21.5-2.1,31.1-6.3c9.6-4.1,18.1-9.9,25.3-17.2
	c7.3-7.3,13-15.8,17.2-25.3c4.2-9.6,6.3-20.1,6.3-31.1C413.8,70.1,411.6,59.6,407.5,50 M396.4,81.2c0,8.4-1.6,16.6-4.8,24.2
	c-3.2,7.6-7.8,14.5-13.6,20.3c-5.8,5.8-12.6,10.4-20.1,13.6c-15,6.4-33,6.4-48.2,0c-7.6-3.2-14.5-7.8-20.3-13.6
	c-5.8-5.8-10.4-12.6-13.6-20.3c-3.2-7.6-4.8-15.7-4.8-24.2c0-8.4,1.6-16.5,4.8-24c3.2-7.6,7.8-14.5,13.6-20.5
	c5.8-5.8,12.6-10.3,20.2-13.4c7.6-3.1,15.8-4.7,24.2-4.7c8.4,0,16.5,1.6,24.1,4.7c7.5,3.1,14.3,7.6,20,13.4
	c5.9,6.1,10.5,13,13.7,20.5C394.8,64.7,396.4,72.7,396.4,81.2"/>
<path class="st1" d="M66.4,12.9"/>
<path class="st1" d="M25.8,58.4"/>
</svg>
