<?xml version="1.0" encoding="UTF-8" standalone="no"?>
<!-- Created with Inkscape (http://www.inkscape.org/) -->

<svg
   xmlns:dc="http://purl.org/dc/elements/1.1/"
   xmlns:cc="http://creativecommons.org/ns#"
   xmlns:rdf="http://www.w3.org/1999/02/22-rdf-syntax-ns#"
   xmlns:svg="http://www.w3.org/2000/svg"
   xmlns="http://www.w3.org/2000/svg"
   xmlns:sodipodi="http://sodipodi.sourceforge.net/DTD/sodipodi-0.dtd"
   xmlns:inkscape="http://www.inkscape.org/namespaces/inkscape"
   width="37.136494mm"
   height="37.136494mm"
   viewBox="0 0 131.586 131.586"
   id="svg2"
   version="1.1"
   inkscape:version="0.91 r13725"
   sodipodi:docname="isotipo.svg">
  <defs
     id="defs4">
    <marker
       inkscape:stockid="Arrow1Lstart"
       orient="auto"
       refY="0"
       refX="0"
       id="Arrow1Lstart"
       style="overflow:visible"
       inkscape:isstock="true">
      <path
         id="path4269"
         d="M 0,0 5,-5 -12.5,0 5,5 0,0 Z"
         style="fill:#000000;fill-opacity:1;fill-rule:evenodd;stroke:#000000;stroke-width:1pt;stroke-opacity:1"
         transform="matrix(0.8,0,0,0.8,10,0)"
         inkscape:connector-curvature="0" />
    </marker>
    <marker
       inkscape:stockid="Arrow1Lend"
       orient="auto"
       refY="0"
       refX="0"
       id="marker4585"
       style="overflow:visible"
       inkscape:isstock="true">
      <path
         id="path4587"
         d="M 0,0 5,-5 -12.5,0 5,5 0,0 Z"
         style="fill:#000000;fill-opacity:1;fill-rule:evenodd;stroke:#000000;stroke-width:1pt;stroke-opacity:1"
         transform="matrix(-0.8,0,0,-0.8,-10,0)"
         inkscape:connector-curvature="0" />
    </marker>
    <marker
       inkscape:stockid="Arrow2Lend"
       orient="auto"
       refY="0"
       refX="0"
       id="Arrow2Lend"
       style="overflow:visible"
       inkscape:isstock="true">
      <path
         id="path4290"
         style="fill:#000000;fill-opacity:1;fill-rule:evenodd;stroke:#000000;stroke-width:0.625;stroke-linejoin:round;stroke-opacity:1"
         d="M 8.7185878,4.0337352 -2.2072895,0.01601326 8.7185884,-4.0017078 c -1.7454984,2.3720609 -1.7354408,5.6174519 -6e-7,8.035443 z"
         transform="matrix(-1.1,0,0,-1.1,-1.1,0)"
         inkscape:connector-curvature="0" />
    </marker>
    <marker
       inkscape:stockid="Arrow1Lend"
       orient="auto"
       refY="0"
       refX="0"
       id="Arrow1Lend"
       style="overflow:visible"
       inkscape:isstock="true">
      <path
         id="path4272"
         d="M 0,0 5,-5 -12.5,0 5,5 0,0 Z"
         style="fill:#000000;fill-opacity:1;fill-rule:evenodd;stroke:#000000;stroke-width:1pt;stroke-opacity:1"
         transform="matrix(-0.8,0,0,-0.8,-10,0)"
         inkscape:connector-curvature="0" />
    </marker>
    <mask
       maskUnits="userSpaceOnUse"
       id="mask4213">
      <rect
         ry="0"
         rx="0"
         y="1293.6309"
         x="-71.852219"
         height="342.36322"
         width="408.92953"
         id="rect4215"
         style="opacity:1;fill:#808080;fill-opacity:1;stroke:none;stroke-width:20;stroke-linecap:round;stroke-miterlimit:6.5999999;stroke-dasharray:none;stroke-opacity:1" />
    </mask>
    <mask
       maskUnits="userSpaceOnUse"
       id="mask4223">
      <path
         sodipodi:type="star"
         style="opacity:1;fill:#ffffff;fill-opacity:1;stroke:#ff0000;stroke-width:5;stroke-linecap:round;stroke-miterlimit:6.5999999;stroke-dasharray:none;stroke-opacity:1"
         id="path4225"
         sodipodi:sides="3"
         sodipodi:cx="-72.85714"
         sodipodi:cy="1400.9336"
         sodipodi:r1="90.045341"
         sodipodi:r2="45.022671"
         sodipodi:arg1="-1.5707963"
         sodipodi:arg2="-0.52359878"
         inkscape:flatsided="false"
         inkscape:rounded="0"
         inkscape:randomized="0"
         d="m -72.857137,1310.8883 38.990774,67.534 38.9907754,67.534 -77.9815514,0 -77.981551,0 38.99077,-67.534 z"
         inkscape:transform-center-y="22.981534"
         transform="matrix(0.4157232,0,0,-1.020883,441.71701,2839.6378)" />
    </mask>
    <filter
       style="color-interpolation-filters:sRGB"
       inkscape:label="Out of Focus"
       id="filter3658">
      <feFlood
         flood-opacity="0.564706"
         flood-color="rgb(0,0,0)"
         result="flood"
         id="feFlood3660" />
      <feColorMatrix
         in="SourceGraphic"
         values="1 0 0 0 0 0 1 0 0 0 0 0 1 0 0 -0.2125 -0.7154 -0.0721 1 0 "
         result="colormatrix1"
         id="feColorMatrix3662" />
      <feGaussianBlur
         in="colormatrix1"
         stdDeviation="4.29 3.89"
         result="blur"
         id="feGaussianBlur3664" />
      <feColorMatrix
         in="blur"
         values="1 0 0 0 0 0 1 0 0 0 0 0 1 0 0 0 0 0 8.29 -9.89305 "
         result="colormatrix2"
         id="feColorMatrix3666" />
      <feBlend
         in="colormatrix2"
         in2="flood"
         mode="normal"
         result="blend"
         id="feBlend3668" />
      <feComposite
         in="blend"
         in2="blend"
         operator="arithmetic"
         k2="1"
         result="composite1"
         id="feComposite3670"
         k1="0"
         k3="0"
         k4="0" />
      <feComposite
         in2="SourceGraphic"
         operator="in"
         id="feComposite3672"
         result="fbSourceGraphic" />
      <feColorMatrix
         result="fbSourceGraphicAlpha"
         in="fbSourceGraphic"
         values="0 0 0 -1 0 0 0 0 -1 0 0 0 0 -1 0 0 0 0 1 0"
         id="feColorMatrix3674" />
      <feFlood
         id="feFlood3676"
         flood-opacity="0.564706"
         flood-color="rgb(0,0,0)"
         result="flood"
         in="fbSourceGraphic" />
      <feColorMatrix
         id="feColorMatrix3678"
         in="fbSourceGraphic"
         values="1 0 0 0 0 0 1 0 0 0 0 0 1 0 0 -0.2125 -0.7154 -0.0721 1 0 "
         result="colormatrix1" />
      <feGaussianBlur
         id="feGaussianBlur3680"
         in="colormatrix1"
         stdDeviation="4.29 3.89"
         result="blur" />
      <feColorMatrix
         id="feColorMatrix3682"
         in="blur"
         values="1 0 0 0 0 0 1 0 0 0 0 0 1 0 0 0 0 0 8.29 -9.89 "
         result="colormatrix2" />
      <feBlend
         id="feBlend3684"
         in2="flood"
         in="colormatrix2"
         mode="normal"
         result="blend" />
      <feComposite
         id="feComposite3686"
         in2="blend"
         in="blend"
         operator="arithmetic"
         k2="1"
         result="composite1"
         k1="0"
         k3="0"
         k4="0" />
      <feComposite
         id="feComposite3688"
         in2="fbSourceGraphic"
         operator="in" />
    </filter>
    <filter
       style="color-interpolation-filters:sRGB"
       inkscape:label="Blur"
       id="filter3988">
      <feGaussianBlur
         stdDeviation="3.22 6.96118"
         result="blur"
         id="feGaussianBlur3990" />
    </filter>
    <filter
       style="color-interpolation-filters:sRGB"
       inkscape:label="Blur"
       id="filter3994">
      <feGaussianBlur
         stdDeviation="3.22 6.96"
         result="blur"
         id="feGaussianBlur3996" />
    </filter>
  </defs>
  <sodipodi:namedview
     id="base"
     pagecolor="#ffffff"
     bordercolor="#666666"
     borderopacity="1.0"
     inkscape:pageopacity="0.0"
     inkscape:pageshadow="2"
     inkscape:zoom="1"
     inkscape:cx="423.10053"
     inkscape:cy="78.555447"
     inkscape:document-units="px"
     inkscape:current-layer="layer1"
     showgrid="false"
     inkscape:window-width="1366"
     inkscape:window-height="681"
     inkscape:window-x="0"
     inkscape:window-y="24"
     inkscape:window-maximized="1"
     showguides="true"
     inkscape:guide-bbox="true"
     fit-margin-top="0"
     fit-margin-left="0"
     fit-margin-right="0"
     fit-margin-bottom="0" />
  <metadata
     id="metadata7">
    <rdf:RDF>
      <cc:Work
         rdf:about="">
        <dc:format>image/svg+xml</dc:format>
        <dc:type
           rdf:resource="http://purl.org/dc/dcmitype/StillImage" />
        <dc:title></dc:title>
      </cc:Work>
    </rdf:RDF>
  </metadata>
  <g
     inkscape:label="Capa 1"
     inkscape:groupmode="layer"
     id="layer1"
     transform="translate(-75.022258,-731.65816)">
    <g
       transform="matrix(0.892399,0,0,0.892399,20.426936,57.728597)"
       id="g4262"
       style="font-style:normal;font-variant:normal;font-weight:normal;font-stretch:normal;font-size:316.72937012px;line-height:125%;font-family:Righteous;-inkscape-font-specification:Righteous;letter-spacing:0px;word-spacing:0px;fill:#000000;fill-opacity:1;stroke:none;stroke-width:1px;stroke-linecap:butt;stroke-linejoin:miter;stroke-opacity:1" />
    <g
       id="g3395"
       transform="matrix(0.48971236,0,0,0.48971236,433.02125,481.59891)"
       inkscape:export-xdpi="410.37802"
       inkscape:export-ydpi="410.37802">
      <circle
         inkscape:export-ydpi="113.73"
         inkscape:export-xdpi="113.73"
         r="134.3503"
         cy="644.97504"
         cx="-596.68903"
         id="path4223"
         style="font-style:normal;font-weight:normal;font-size:medium;line-height:125%;font-family:sans-serif;letter-spacing:0px;word-spacing:0px;opacity:1;fill:#ff6633;fill-opacity:1;stroke:none;stroke-width:10;stroke-linecap:butt;stroke-linejoin:miter;stroke-miterlimit:4;stroke-dasharray:none;stroke-dashoffset:0;stroke-opacity:1" />
      <path
         inkscape:export-ydpi="113.73"
         inkscape:export-xdpi="113.73"
         sodipodi:nodetypes="ccscccscccccssccccsscssscccssssc"
         inkscape:connector-curvature="0"
         id="path4213"
         d="m -588.8755,546.00446 c -9.08845,0 -17.86483,1.20335 -26.32956,3.60912 -8.37562,2.31665 -16.2162,5.61363 -23.52259,9.89055 -7.3064,4.27691 -13.98915,9.44438 -20.04811,15.50335 -6.05897,5.96985 -11.22643,12.65261 -15.50335,20.04811 -4.27692,7.30639 -7.61829,15.14696 -10.02406,23.52259 -2.31666,8.37563 -3.47561,17.1076 -3.47561,26.19605 0,9.08844 1.15895,17.86596 3.47561,26.33069 2.40577,8.46472 5.74714,16.3941 10.02406,23.7896 4.27692,7.3064 9.44438,13.98915 15.50335,20.04811 6.05896,5.96986 12.74171,11.13846 20.04811,15.50448 7.30639,4.27691 15.14697,7.57276 23.52259,9.88942 8.46473,2.40576 17.24111,3.60911 26.32956,3.60911 11.85061,0 23.2504,-2.02243 34.21642,-6.01443 61.14757,-22.25975 62.03766,-105.56281 19.78681,-104.58474 0,0 -30.70921,0.30027 -42.75545,0.67374 l 0.35615,30.08205 32.21966,-0.15348 c -0.10985,25.12504 -13.2615,36.44891 -29.78991,40.16762 -4.57516,1.02936 -9.22215,1.7378 -14.03368,1.7378 -8.37563,0 -16.2606,-1.60408 -23.6561,-4.81177 -7.30639,-3.20769 -13.72161,-7.57368 -19.24596,-13.09803 -5.52435,-5.52434 -9.89034,-11.98396 -13.09802,-19.37946 -3.20769,-7.3955 -4.81178,-15.32601 -4.81178,-23.79073 0,-8.37562 1.60409,-16.2162 4.81178,-23.52259 3.20768,-7.3955 7.57367,-13.81072 13.09802,-19.24597 5.52435,-5.52434 11.93957,-9.89034 19.24596,-13.09802 7.3955,-3.20769 15.28047,-4.81178 23.6561,-4.81178 8.37562,0 16.6333,1.12056 23.92423,5.07878 28.08102,15.24509 51.34687,-26.06771 11.63366,-38.02225 -11.20433,-3.37275 -23.70728,-5.14794 -35.55789,-5.14794 z"
         style="font-style:normal;font-variant:normal;font-weight:normal;font-stretch:normal;font-size:medium;line-height:125%;font-family:Righteous;-inkscape-font-specification:Righteous;letter-spacing:0px;word-spacing:0px;fill:#ffffff;fill-opacity:1;stroke:none;stroke-width:1px;stroke-linecap:butt;stroke-linejoin:miter;stroke-opacity:1" />
      <path
         inkscape:export-ydpi="113.73"
         inkscape:export-xdpi="113.73"
         id="path3351"
         d="m -586.64529,623.3339 c -12.85089,0 -23.26695,10.41712 -23.26695,23.26695 0,5.65156 2.01376,10.82879 5.36484,14.86047 l 17.92282,25.85723 18.18165,-26.23408 c 0.6541,-0.81842 1.2535,-1.67978 1.7931,-2.58406 l 0.1843,-0.26505 -0.033,0 c 1.98138,-3.42421 3.12035,-7.39398 3.12035,-11.63451 0,-12.84983 -10.41818,-23.26695 -23.26695,-23.26695 z m -0.43481,13.86038 c 5.19483,5.4e-4 9.40451,4.2126 9.40451,9.40657 0,5.1957 -4.20882,9.40659 -9.40451,9.40659 -5.19484,0 -9.40659,-4.21174 -9.40659,-9.40659 0,-5.19483 4.21175,-9.40657 9.40659,-9.40657 z"
         style="font-style:normal;font-weight:normal;font-size:medium;line-height:125%;font-family:sans-serif;letter-spacing:0px;word-spacing:0px;fill:#ffffff;fill-opacity:1;stroke:none;stroke-width:1px;stroke-linecap:butt;stroke-linejoin:miter;stroke-opacity:1"
         inkscape:connector-curvature="0" />
    </g>
  </g>
</svg>
