<?xml version="1.0" encoding="UTF-8" standalone="no"?>
<svg
   xmlns:dc="http://purl.org/dc/elements/1.1/"
   xmlns:cc="http://creativecommons.org/ns#"
   xmlns:rdf="http://www.w3.org/1999/02/22-rdf-syntax-ns#"
   xmlns:svg="http://www.w3.org/2000/svg"
   xmlns="http://www.w3.org/2000/svg"
   xmlns:sodipodi="http://sodipodi.sourceforge.net/DTD/sodipodi-0.dtd"
   xmlns:inkscape="http://www.inkscape.org/namespaces/inkscape"
   enable-background="new 0 0 144 144"
   id="Layer_1"
   version="1.1"
   viewBox="0 0 144 144"
   xml:space="preserve"
   inkscape:version="0.91 r13725"
   sodipodi:docname="if_App_Development_1016076.svg"><metadata
     id="metadata63"><rdf:RDF><cc:Work
         rdf:about=""><dc:format>image/svg+xml</dc:format><dc:type
           rdf:resource="http://purl.org/dc/dcmitype/StillImage" /></cc:Work></rdf:RDF></metadata><defs
     id="defs61" /><sodipodi:namedview
     pagecolor="#ffffff"
     bordercolor="#666666"
     borderopacity="1"
     objecttolerance="10"
     gridtolerance="10"
     guidetolerance="10"
     inkscape:pageopacity="0"
     inkscape:pageshadow="2"
     inkscape:window-width="1366"
     inkscape:window-height="681"
     id="namedview59"
     showgrid="false"
     inkscape:zoom="3.2777778"
     inkscape:cx="81.870592"
     inkscape:cy="87.065562"
     inkscape:window-x="0"
     inkscape:window-y="24"
     inkscape:window-maximized="1"
     inkscape:current-layer="Layer_1" /><path
     inkscape:connector-curvature="0"
     style="fill:none;stroke:#f44336;stroke-linecap:round;stroke-linejoin:round;stroke-miterlimit:10;stroke-opacity:1"
     id="path5"
     stroke-miterlimit="10"
     d="m 99.14,104.6 0,9.584 c 0,6.25 -5.066,11.316 -11.316,11.316 l -37.16,0 c -6.25,0 -11.316,-5.066 -11.316,-11.316 l 0,-82.354 c 0,-6.25 5.066,-11.316 11.316,-11.316 l 37.159,0 c 6.25,0 11.316,5.066 11.316,11.316 l 0,22.03" /><path
     inkscape:connector-curvature="0"
     style="fill:none;stroke:#f44336;stroke-linecap:round;stroke-linejoin:round;stroke-miterlimit:10;stroke-opacity:1"
     id="path7"
     stroke-miterlimit="10"
     d="m 39.348,32 0,-0.17 c 0,-6.25 5.066,-11.316 11.316,-11.316 l 37.159,0 c 6.25,0 11.316,5.066 11.316,11.316 l 0,0.17 -59.791,0 z" /><path
     inkscape:connector-curvature="0"
     style="opacity:0.3;fill:#f44336;stroke:#f44336;stroke-opacity:1;fill-opacity:1"
     id="path9"
     d="m 39.182,32 0,-0.17 c 0,-6.25 5.066,-11.316 11.316,-11.316 l 37.159,0 c 6.25,0 11.316,5.066 11.316,11.316 l 0,0.17 -59.791,0 z" /><path
     inkscape:connector-curvature="0"
     style="fill:none;stroke:#f44336;stroke-linecap:round;stroke-linejoin:round;stroke-miterlimit:10;stroke-opacity:1"
     id="path11"
     stroke-miterlimit="10"
     d="m 99.14,114.015 0,0.17 c 0,6.25 -5.066,11.316 -11.316,11.316 l -37.16,0 c -6.25,0 -11.316,-5.066 -11.316,-11.316 l 0,-0.17 59.792,0 z" /><path
     inkscape:connector-curvature="0"
     style="opacity:0.3;fill:#f44336;stroke:#f44336;stroke-opacity:1;fill-opacity:1"
     id="path13"
     d="m 99.14,114.015 0,0.17 c 0,6.25 -5.066,11.316 -11.316,11.316 l -37.16,0 c -6.25,0 -11.316,-5.066 -11.316,-11.316 l 0,-0.17 59.792,0 z" /><line
     style="fill:#ffffff;stroke:#f44336;stroke-linecap:round;stroke-linejoin:round;stroke-miterlimit:10;stroke-opacity:1"
     id="line15"
     y2="120.374"
     y1="120.374"
     x2="74.544998"
     x1="63.943001"
     stroke-miterlimit="10" /><line
     style="fill:#ffffff;stroke:#f44336;stroke-linecap:round;stroke-linejoin:round;stroke-miterlimit:10;stroke-opacity:1"
     id="line17"
     y2="26.257"
     y1="26.257"
     x2="74.544998"
     x1="63.943001"
     stroke-miterlimit="10" /><g
     style="stroke:#f44336;stroke-opacity:1"
     id="g19"><line
       style="fill:none;stroke:#f44336;stroke-linecap:round;stroke-linejoin:round;stroke-miterlimit:10;stroke-opacity:1"
       id="line21"
       y2="61.654999"
       y1="50.525002"
       x2="9.5279999"
       x1="9.5279999"
       stroke-miterlimit="10" /><line
       style="fill:none;stroke:#f44336;stroke-linecap:round;stroke-linejoin:round;stroke-miterlimit:10;stroke-opacity:1"
       id="line23"
       y2="56.09"
       y1="56.09"
       x2="3.2980001"
       x1="15.757"
       stroke-miterlimit="10" /></g><g
     style="stroke:#f44336;stroke-opacity:1"
     id="g25"><line
       style="fill:none;stroke:#f44336;stroke-linecap:round;stroke-linejoin:round;stroke-miterlimit:10;stroke-opacity:1"
       id="line27"
       y2="85.274002"
       y1="77.815002"
       x2="23.194"
       x1="23.194"
       stroke-miterlimit="10" /><line
       style="fill:none;stroke:#f44336;stroke-linecap:round;stroke-linejoin:round;stroke-miterlimit:10;stroke-opacity:1"
       id="line29"
       y2="81.543999"
       y1="81.543999"
       x2="19.465"
       x1="26.924"
       stroke-miterlimit="10" /></g><path
     d="m 135.544,73.38 3.94,-1.709 -4.028,-9.287 -4.532,1.965 c -1.676,-2.216 -3.472,-3.867 -5.425,-5.172 l 1.74,-4.835 -9.567,-3.864 -1.813,4.563 c -2.803,-0.462 -5.845,-0.435 -8.568,0.07 l -1.748,-4.029 -8.668,3.759 1.748,4.029 c -3.468,2.18 -4.789,3.984 -6.368,6.347 l -4.831,-1.742 -3.862,9.566 4.758,2.26 c -0.382,2.317 -0.454,4.78 0.019,7.517 l -4.891,2.121 4.028,9.287 4.3,-1.865 c 1.819,2.889 4.094,5.006 6.856,6.852 l -1.906,4.452 9.484,3.672 2.211,-4.849 c 2.803,0.462 5.004,0.686 8.966,-0.356 l 2.045,4.715 8.668,-3.759 -2.045,-4.715 c 2.23,-1.643 4.35,-3.794 5.929,-6.156 l 4.611,1.837 3.752,-9.518 -4.481,-1.471 c 0.541,-3.278 0.545,-6.383 -0.322,-9.685 z m -17.806,19.384 c -7.699,3.339 -16.646,-0.195 -19.985,-7.894 -3.339,-7.699 0.195,-16.646 7.894,-19.985 7.699,-3.339 16.646,0.195 19.985,7.894 3.339,7.698 -0.195,16.646 -7.894,19.985 z"
     stroke-miterlimit="10"
     id="path33"
     style="fill:none;stroke:#f44336;stroke-linecap:round;stroke-linejoin:round;stroke-miterlimit:10;stroke-opacity:1"
     inkscape:connector-curvature="0" /><path
     d="m 135.655,73.463 3.94,-1.709 -4.028,-9.287 -4.532,1.965 c -1.676,-2.216 -3.472,-3.867 -5.425,-5.172 l 1.74,-4.835 -9.567,-3.864 -1.813,4.563 c -2.803,-0.462 -5.845,-0.435 -8.568,0.07 l -1.748,-4.029 -8.668,3.759 1.748,4.029 c -3.468,2.18 -4.789,3.984 -6.368,6.347 l -4.831,-1.742 -3.862,9.566 4.758,2.26 c -0.382,2.317 -0.454,4.78 0.019,7.517 l -4.891,2.121 4.028,9.287 4.3,-1.865 c 1.819,2.889 4.094,5.006 6.856,6.852 l -1.906,4.452 9.484,3.672 2.211,-4.849 c 2.803,0.462 5.004,0.686 8.966,-0.356 l 2.045,4.715 8.668,-3.759 -2.045,-4.715 c 2.23,-1.643 4.35,-3.794 5.929,-6.156 l 4.611,1.837 3.752,-9.518 -4.481,-1.471 c 0.54,-3.278 0.544,-6.383 -0.322,-9.685 z m -17.917,19.301 c -7.699,3.339 -16.646,-0.195 -19.985,-7.894 -3.339,-7.699 0.195,-16.646 7.894,-19.985 7.699,-3.339 16.646,0.195 19.985,7.894 3.339,7.698 -0.195,16.646 -7.894,19.985 z"
     id="path35"
     style="opacity:0.3;fill:#f44336;stroke:#f44336;stroke-opacity:1;fill-opacity:1"
     inkscape:connector-curvature="0" /><line
     style="fill:none;stroke:#f44336;stroke-linecap:round;stroke-linejoin:round;stroke-miterlimit:10;stroke-opacity:1"
     id="line37"
     y2="44.555"
     y1="44.555"
     x2="83.360001"
     x1="47.360001"
     stroke-miterlimit="10" /><line
     style="fill:none;stroke:#f44336;stroke-linecap:round;stroke-linejoin:round;stroke-miterlimit:10;stroke-opacity:1"
     id="line39"
     y2="55.555"
     y1="55.555"
     x2="72.360001"
     x1="47.360001"
     stroke-miterlimit="10" /><g
     style="stroke:#f44336;stroke-opacity:1"
     id="g41"><line
       style="fill:none;stroke:#f44336;stroke-linecap:round;stroke-linejoin:round;stroke-miterlimit:10;stroke-opacity:1"
       id="line43"
       y2="39.587002"
       y1="28.457001"
       x2="125.445"
       x1="125.445"
       stroke-miterlimit="10" /><line
       style="fill:none;stroke:#f44336;stroke-linecap:round;stroke-linejoin:round;stroke-miterlimit:10;stroke-opacity:1"
       id="line45"
       y2="34.021999"
       y1="34.021999"
       x2="119.215"
       x1="131.674"
       stroke-miterlimit="10" /></g><g
     id="g47" /><g
     id="g49" /><g
     id="g51" /><g
     id="g53" /><g
     id="g55" /><g
     id="g57" /></svg>