<?xml version="1.0" encoding="UTF-8" standalone="no"?>
<svg
   xmlns:dc="http://purl.org/dc/elements/1.1/"
   xmlns:cc="http://creativecommons.org/ns#"
   xmlns:rdf="http://www.w3.org/1999/02/22-rdf-syntax-ns#"
   xmlns:svg="http://www.w3.org/2000/svg"
   xmlns="http://www.w3.org/2000/svg"
   xmlns:sodipodi="http://sodipodi.sourceforge.net/DTD/sodipodi-0.dtd"
   xmlns:inkscape="http://www.inkscape.org/namespaces/inkscape"
   enable-background="new 0 0 144 144"
   id="Layer_1"
   version="1.1"
   viewBox="0 0 144 144"
   xml:space="preserve"
   inkscape:version="0.91 r13725"
   sodipodi:docname="landing.svg"><metadata
     id="metadata83"><rdf:RDF><cc:Work
         rdf:about=""><dc:format>image/svg+xml</dc:format><dc:type
           rdf:resource="http://purl.org/dc/dcmitype/StillImage" /></cc:Work></rdf:RDF></metadata><defs
     id="defs81" /><sodipodi:namedview
     pagecolor="#ffffff"
     bordercolor="#666666"
     borderopacity="1"
     objecttolerance="10"
     gridtolerance="10"
     guidetolerance="10"
     inkscape:pageopacity="0"
     inkscape:pageshadow="2"
     inkscape:window-width="1366"
     inkscape:window-height="681"
     id="namedview79"
     showgrid="false"
     inkscape:zoom="4.6354778"
     inkscape:cx="72.952007"
     inkscape:cy="69.530752"
     inkscape:window-x="0"
     inkscape:window-y="24"
     inkscape:window-maximized="1"
     inkscape:current-layer="Layer_1" /><circle
     style="opacity:0.3;fill:#f44336;stroke:#f44336;stroke-opacity:1;fill-opacity:1"
     id="circle15"
     r="3.605"
     cy="96.612999"
     cx="57.569" /><circle
     style="fill:none;stroke:#f44336;stroke-linecap:round;stroke-linejoin:round;stroke-miterlimit:10;stroke-opacity:1"
     id="circle17"
     stroke-miterlimit="10"
     r="3.605"
     cy="96.612999"
     cx="57.569" /><circle
     style="fill:none;stroke:#f44336;stroke-linecap:round;stroke-linejoin:round;stroke-miterlimit:10;stroke-opacity:1"
     id="circle45"
     stroke-miterlimit="10"
     r="2.2060001"
     cy="119.246"
     cx="117.456" /><rect
     style="opacity:0.3;fill:#f44336;stroke:none;stroke-opacity:1;fill-opacity:1"
     id="rect5"
     y="104.861"
     x="46.960999"
     width="20.997999"
     height="5.0029998" /><path
     inkscape:connector-curvature="0"
     style="fill:none;stroke:#f44336;stroke-linecap:round;stroke-linejoin:round;stroke-miterlimit:10;stroke-opacity:1"
     id="path7"
     stroke-miterlimit="10"
     d="m 91.732,104.989 -76.049,0 C 9.06,104.989 3.641,99.57 3.641,92.947 l 0,-58.82 c 0,-6.623 5.419,-12.042 12.042,-12.042 l 83.771,0 c 6.623,0 12.042,5.419 12.042,12.042 l 0,22.536" /><path
     inkscape:connector-curvature="0"
     style="fill:none;stroke:#f44336;stroke-linecap:round;stroke-linejoin:round;stroke-miterlimit:10;stroke-opacity:1"
     id="path9"
     stroke-miterlimit="10"
     d="m 91.732,87.74 -75.97,0 c -3.558,0 -6.469,-2.911 -6.469,-6.469 l 0,-46.804 c 0,-3.558 2.911,-6.47 6.47,-6.47 l 83.613,0 c 3.558,0 6.469,2.911 6.469,6.469 l 0,21.675" /><path
     inkscape:connector-curvature="0"
     style="opacity:0.3;fill:#f44336;stroke:#f44336;stroke-opacity:1;fill-opacity:1"
     id="path11"
     d="m 9.292,36.519 0,-2.052 c 0,-3.558 2.911,-6.47 6.47,-6.47 l 83.613,0 c 3.558,0 6.469,2.911 6.469,6.469 l 0,2.053 -96.552,0 z" /><path
     inkscape:connector-curvature="0"
     style="fill:none;stroke:#f44336;stroke-linecap:round;stroke-linejoin:round;stroke-miterlimit:10;stroke-opacity:1"
     id="path13"
     stroke-miterlimit="10"
     d="m 9.292,36.519 0,-2.052 c 0,-3.558 2.911,-6.47 6.47,-6.47 l 83.613,0 c 3.558,0 6.469,2.911 6.469,6.469 l 0,2.053 -96.552,0 z" /><path
     inkscape:connector-curvature="0"
     style="fill:none;stroke:#f44336;stroke-linecap:round;stroke-linejoin:round;stroke-miterlimit:10;stroke-opacity:1"
     id="path19"
     stroke-miterlimit="10"
     d="m 68.111,105.247 c 0,0 -1.904,12.308 7.468,12.308 -11.421,0 -18.743,0 -18.743,0 l 1.171,0 c 0,0 -7.028,0 -18.45,0 9.371,0 7.321,-12.18 7.321,-12.18" /><rect
     style="fill:none;stroke:#f44336;stroke-linecap:round;stroke-linejoin:round;stroke-miterlimit:10;stroke-opacity:1"
     id="rect21"
     y="42.926998"
     x="16.538"
     width="35.955002"
     stroke-miterlimit="10"
     height="13.434" /><g
     style="stroke:#f44336;stroke-opacity:1"
     id="g23"><line
       style="fill:none;stroke:#f44336;stroke-linecap:round;stroke-linejoin:round;stroke-miterlimit:10;stroke-opacity:1"
       id="line25"
       y2="44.555"
       y1="44.555"
       x2="88.360001"
       x1="58.360001"
       stroke-miterlimit="10" /><line
       style="fill:none;stroke:#f44336;stroke-linecap:round;stroke-linejoin:round;stroke-miterlimit:10;stroke-opacity:1"
       id="line27"
       y2="50.555"
       y1="50.555"
       x2="93.360001"
       x1="58.360001"
       stroke-miterlimit="10" /><line
       style="fill:none;stroke:#f44336;stroke-linecap:round;stroke-linejoin:round;stroke-miterlimit:10;stroke-opacity:1"
       id="line29"
       y2="54.555"
       y1="54.555"
       x2="88.360001"
       x1="58.360001"
       stroke-miterlimit="10" /></g><rect
     style="opacity:0.3;fill:#f44336;stroke:#f44336;stroke-opacity:1;fill-opacity:1"
     id="rect31"
     y="63.77"
     x="16.538"
     width="17.978001"
     height="17.978001" /><rect
     style="fill:none;stroke:#f44336;stroke-linecap:round;stroke-linejoin:round;stroke-miterlimit:10;stroke-opacity:1"
     id="rect33"
     y="63.77"
     x="16.538"
     width="17.978001"
     stroke-miterlimit="10"
     height="17.978001" /><rect
     style="fill:none;stroke:#f44336;stroke-linecap:round;stroke-linejoin:round;stroke-miterlimit:10;stroke-opacity:1"
     id="rect35"
     y="63.77"
     x="41.035"
     width="17.978001"
     stroke-miterlimit="10"
     height="17.978001" /><rect
     style="fill:none;stroke:#f44336;stroke-linecap:round;stroke-linejoin:round;stroke-miterlimit:10;stroke-opacity:1"
     id="rect37"
     y="63.77"
     x="65.531998"
     width="17.978001"
     stroke-miterlimit="10"
     height="17.978001" /><path
     inkscape:connector-curvature="0"
     style="fill:none;stroke:#f44336;stroke-linecap:round;stroke-linejoin:round;stroke-miterlimit:10;stroke-opacity:1"
     id="path39"
     stroke-miterlimit="10"
     d="m 134.727,124.88 -38.131,0 c -2.652,0 -4.822,-2.17 -4.822,-4.822 l 0,-58.578 c 0,-2.652 2.17,-4.822 4.822,-4.822 l 38.131,0 c 2.652,0 4.822,2.17 4.822,4.822 l 0,58.578 c 0,2.652 -2.17,4.822 -4.822,4.822 z" /><path
     inkscape:connector-curvature="0"
     style="fill:none;stroke:#f44336;stroke-linecap:round;stroke-linejoin:round;stroke-miterlimit:10;stroke-opacity:1"
     id="path41"
     stroke-miterlimit="10"
     d="m 133.102,113.904 -34.88,0 c -1.717,0 -3.11,-1.392 -3.11,-3.11 l 0,-47.134 c 0,-1.717 1.392,-3.11 3.11,-3.11 l 34.88,0 c 1.717,0 3.11,1.392 3.11,3.11 l 0,47.134 c -10e-4,1.718 -1.393,3.11 -3.11,3.11 z" /><circle
     style="opacity:0.3;fill:#f44336;stroke:#f44336;stroke-opacity:1;fill-opacity:1"
     id="circle43"
     r="2.2060001"
     cy="119.246"
     cx="117.456" /><rect
     style="opacity:0.3;fill:#f44336;stroke:#f44336;stroke-opacity:1;fill-opacity:1"
     id="rect47"
     y="65.646004"
     x="100.96"
     width="30.596001"
     height="25.649" /><rect
     style="fill:none;stroke:#f44336;stroke-linecap:round;stroke-linejoin:round;stroke-miterlimit:10;stroke-opacity:1"
     id="rect49"
     y="65.646004"
     x="100.318"
     width="31.238001"
     stroke-miterlimit="10"
     height="25.649" /><line
     style="fill:none;stroke:#f44336;stroke-linecap:round;stroke-linejoin:round;stroke-miterlimit:10;stroke-opacity:1"
     id="line51"
     y2="98.555"
     y1="98.555"
     x2="125.36"
     x1="101.36"
     stroke-miterlimit="10" /><line
     style="fill:none;stroke:#f44336;stroke-linecap:round;stroke-linejoin:round;stroke-miterlimit:10;stroke-opacity:1"
     id="line53"
     y2="102.555"
     y1="102.555"
     x2="121.36"
     x1="101.36"
     stroke-miterlimit="10" /><g
     style="stroke:#f44336;stroke-opacity:1"
     id="g55"><line
       style="fill:none;stroke:#f44336;stroke-linecap:round;stroke-linejoin:round;stroke-miterlimit:10;stroke-opacity:1"
       id="line57"
       y2="46.741001"
       y1="40.509998"
       x2="125.538"
       x1="125.538"
       stroke-miterlimit="10" /><line
       style="fill:none;stroke:#f44336;stroke-linecap:round;stroke-linejoin:round;stroke-miterlimit:10;stroke-opacity:1"
       id="line59"
       y2="43.625"
       y1="43.625"
       x2="122.423"
       x1="128.65401"
       stroke-miterlimit="10" /></g><g
     style="stroke:#f44336;stroke-opacity:1"
     id="g61"><line
       style="fill:none;stroke:#f44336;stroke-linecap:round;stroke-linejoin:round;stroke-miterlimit:10;stroke-opacity:1"
       id="line63"
       y2="28.777"
       y1="18.368999"
       x2="135.66299"
       x1="135.66299"
       stroke-miterlimit="10" /><line
       style="fill:none;stroke:#f44336;stroke-linecap:round;stroke-linejoin:round;stroke-miterlimit:10;stroke-opacity:1"
       id="line65"
       y2="23.573"
       y1="23.573"
       x2="130.46001"
       x1="140.867"
       stroke-miterlimit="10" /></g><g
     id="g67"
     style="stroke:#f44336;stroke-opacity:1" /><g
     id="g69"
     style="stroke:#f44336;stroke-opacity:1" /><g
     id="g71"
     style="stroke:#f44336;stroke-opacity:1" /><g
     id="g73"
     style="stroke:#f44336;stroke-opacity:1" /><g
     id="g75"
     style="stroke:#f44336;stroke-opacity:1" /><g
     id="g77"
     style="stroke:#f44336;stroke-opacity:1" /></svg>