<?xml version="1.0" encoding="UTF-8" standalone="no"?>
<svg
   xmlns:dc="http://purl.org/dc/elements/1.1/"
   xmlns:cc="http://creativecommons.org/ns#"
   xmlns:rdf="http://www.w3.org/1999/02/22-rdf-syntax-ns#"
   xmlns:svg="http://www.w3.org/2000/svg"
   xmlns="http://www.w3.org/2000/svg"
   xmlns:sodipodi="http://sodipodi.sourceforge.net/DTD/sodipodi-0.dtd"
   xmlns:inkscape="http://www.inkscape.org/namespaces/inkscape"
   id="Layer_1"
   version="1.1"
   viewBox="0 0 85 136.388"
   xml:space="preserve"
   inkscape:version="0.91 r13725"
   sodipodi:docname="bulb_on.svg"
   width="85"
   height="136.388"><metadata
     id="metadata27"><rdf:RDF><cc:Work
         rdf:about=""><dc:format>image/svg+xml</dc:format><dc:type
           rdf:resource="http://purl.org/dc/dcmitype/StillImage" /><dc:title></dc:title></cc:Work></rdf:RDF></metadata><defs
     id="defs25" /><sodipodi:namedview
     pagecolor="#ffffff"
     bordercolor="#666666"
     borderopacity="1"
     objecttolerance="10"
     gridtolerance="10"
     guidetolerance="10"
     inkscape:pageopacity="0"
     inkscape:pageshadow="2"
     inkscape:window-width="1366"
     inkscape:window-height="681"
     id="namedview23"
     showgrid="false"
     inkscape:zoom="1.3350176"
     inkscape:cx="170.07448"
     inkscape:cy="128.02626"
     inkscape:window-x="1920"
     inkscape:window-y="24"
     inkscape:window-maximized="1"
     inkscape:current-layer="Layer_1" /><style
     type="text/css"
     id="style3">
	.st0{fill:#FCC12D;}
	.st1{fill:#46E6F2;}
	.st2{fill:none;stroke:#231F20;stroke-width:3;stroke-linecap:round;stroke-linejoin:round;stroke-miterlimit:10;}
	.st3{fill:#FFFFFF;}
	.st4{fill:none;stroke:#FFFFFF;stroke-width:3;stroke-linecap:round;stroke-linejoin:round;stroke-miterlimit:10;}
</style><g
     id="g4144"
     transform="translate(-80.449128,-85.511962)"><path
       style="fill:#fcc12d"
       inkscape:connector-curvature="0"
       id="XMLID_19_"
       d="m 164.42805,128.80856 c 0,-24.18553 -20.8875,-43.473985 -45.67267,-40.67566 -18.48893,2.098744 -33.579897,16.88989 -35.978461,35.37883 -1.499103,11.49312 1.898863,22.18672 8.295035,30.38181 7.295634,9.39438 10.993416,21.18732 10.993416,33.18014 l 0,1.69899 42.7744,0 0,-1.69899 c 0,-12.39258 4.39737,-24.18552 11.693,-34.0796 4.99701,-6.79593 7.89528,-15.09097 7.89528,-24.18552 z"
       class="st0" /><path
       style="fill:#46e6f2"
       inkscape:connector-curvature="0"
       id="XMLID_18_"
       d="m 143.88115,199.73238 -40.37584,0 c -2.9982,0 -5.496716,-2.39857 -5.496716,-5.49671 l 0,0 c 0,-2.99821 2.398566,-5.49671 5.496716,-5.49671 l 40.37584,0 c 2.9982,0 5.49671,2.39856 5.49671,5.49671 l 0,0 c 0,2.9982 -2.49851,5.49671 -5.49671,5.49671 z"
       class="st1" /><path
       style="fill:#46e6f2"
       inkscape:connector-curvature="0"
       id="XMLID_17_"
       d="m 140.88294,210.52592 -34.47936,0 c -2.79833,0 -4.99701,-2.29863 -4.99701,-4.99701 l 0,-0.59964 c 0,-2.79833 2.29862,-4.99701 4.99701,-4.99701 l 34.47936,0 c 2.79832,0 4.99701,2.29862 4.99701,4.99701 l 0,0.59964 c 0.0999,2.69838 -2.19869,4.99701 -4.99701,4.99701 z"
       class="st1" /><path
       style="fill:#46e6f2"
       inkscape:connector-curvature="0"
       id="XMLID_16_"
       d="m 109.50172,213.12436 0,0.0999 c 0,4.49731 3.59785,8.09516 8.09516,8.09516 l 12.1927,0 c 4.49731,0 8.09515,-3.59785 8.09515,-8.09516 l 0,-0.0999 c 0,-1.39916 -1.19928,-2.59844 -2.59844,-2.59844 l -23.18612,0 c -1.39917,0 -2.59845,1.19928 -2.59845,2.59844 z"
       class="st1" /><path
       style="fill:none;stroke:#231f20;stroke-width:2.99820542;stroke-linecap:round;stroke-linejoin:round;stroke-miterlimit:10"
       inkscape:connector-curvature="0"
       id="XMLID_15_"
       d="m 163.95002,127.95623 c 0,-24.18553 -20.88749,-43.473984 -45.67266,-40.675658 -18.488935,2.098743 -33.579903,16.889888 -35.978467,35.378828 -1.499103,11.49312 1.898863,22.18672 8.295035,30.38181 7.295634,9.39438 10.993422,21.18732 10.993422,33.18014 l 0,1.69899 42.7744,0 0,-1.69899 c 0,-12.39258 4.39737,-24.18552 11.693,-34.0796 4.99701,-6.79593 7.89527,-15.19091 7.89527,-24.18552 z"
       class="st2" /><path
       style="fill:none;stroke:#231f20;stroke-width:2.99820542;stroke-linecap:round;stroke-linejoin:round;stroke-miterlimit:10"
       inkscape:connector-curvature="0"
       id="XMLID_14_"
       d="m 140.06432,209.60736 -34.47936,0 c -2.79833,0 -4.99701,-2.29863 -4.99701,-4.99701 l 0,-0.59964 c 0,-2.79833 2.29862,-4.99701 4.99701,-4.99701 l 34.47936,0 c 2.79832,0 4.99701,2.29862 4.99701,4.99701 l 0,0.59964 c 0,2.79832 -2.19869,4.99701 -4.99701,4.99701 z"
       class="st2" /><path
       style="fill:none;stroke:#231f20;stroke-width:2.99820542;stroke-linecap:round;stroke-linejoin:round;stroke-miterlimit:10"
       inkscape:connector-curvature="0"
       id="XMLID_13_"
       d="m 108.58316,212.2058 0,0.0999 c 0,4.49731 3.59785,8.09516 8.09516,8.09516 l 12.1927,0 c 4.49731,0 8.09515,-3.59785 8.09515,-8.09516 l 0,-0.0999 c 0,-1.39916 -1.19928,-2.59844 -2.59844,-2.59844 l -23.18612,0 c -1.39917,0 -2.59845,1.19928 -2.59845,2.59844 z"
       class="st2" /><ellipse
       style="fill:#ffffff"
       transform="matrix(0.77232845,0.6352234,-0.6352234,0.77232845,0,0)"
       ry="11.792507"
       rx="6.8956189"
       id="XMLID_12_"
       cy="21.642603"
       cx="149.94786"
       class="st3" /><polyline
       style="fill:none;stroke:#ffffff;stroke-width:3;stroke-linecap:round;stroke-linejoin:round;stroke-miterlimit:10"
       transform="matrix(0.99940184,0,0,0.99940184,0.04812109,20.120768)"
       points="132.1,130 123,167.1 114,130 "
       id="XMLID_11_"
       class="st4" /><path
       style="fill:none;stroke:#ffffff;stroke-width:2.99820542;stroke-linecap:round;stroke-linejoin:round;stroke-miterlimit:10"
       inkscape:connector-curvature="0"
       id="XMLID_10_"
       d="m 106.6843,145.5457 c 4.09755,0 4.09755,3.39797 8.09515,3.39797 4.09755,0 4.09755,-3.39797 8.09516,-3.39797 4.09755,0 4.09755,3.39797 8.09515,3.39797 4.09755,0 4.09755,-3.39797 8.09516,-3.39797"
       class="st4" /><path
       style="fill:none;stroke:#231f20;stroke-width:2.99820542;stroke-linecap:round;stroke-linejoin:round;stroke-miterlimit:10"
       inkscape:connector-curvature="0"
       id="XMLID_2_"
       d="m 142.96258,198.81382 -40.37583,0 c -2.998205,0 -5.49671,-2.39857 -5.49671,-5.49671 l 0,0 c 0,-2.99821 2.398565,-5.49671 5.49671,-5.49671 l 40.37583,0 c 2.99821,0 5.49671,2.39856 5.49671,5.49671 l 0,0 c 0,3.09814 -2.4985,5.49671 -5.49671,5.49671 z"
       class="st2" /></g></svg>