<?xml version="1.0" encoding="UTF-8" standalone="no"?>
<svg
   xmlns:dc="http://purl.org/dc/elements/1.1/"
   xmlns:cc="http://creativecommons.org/ns#"
   xmlns:rdf="http://www.w3.org/1999/02/22-rdf-syntax-ns#"
   xmlns:svg="http://www.w3.org/2000/svg"
   xmlns="http://www.w3.org/2000/svg"
   xmlns:sodipodi="http://sodipodi.sourceforge.net/DTD/sodipodi-0.dtd"
   xmlns:inkscape="http://www.inkscape.org/namespaces/inkscape"
   id="Layer_1"
   version="1.1"
   viewBox="0 0 85 136.388"
   xml:space="preserve"
   inkscape:version="0.91 r13725"
   sodipodi:docname="bulb_off.svg"
   width="85"
   height="136.388"><metadata
     id="metadata27"><rdf:RDF><cc:Work
         rdf:about=""><dc:format>image/svg+xml</dc:format><dc:type
           rdf:resource="http://purl.org/dc/dcmitype/StillImage" /><dc:title></dc:title></cc:Work></rdf:RDF></metadata><defs
     id="defs25" /><sodipodi:namedview
     pagecolor="#ffffff"
     bordercolor="#666666"
     borderopacity="1"
     objecttolerance="10"
     gridtolerance="10"
     guidetolerance="10"
     inkscape:pageopacity="0"
     inkscape:pageshadow="2"
     inkscape:window-width="1366"
     inkscape:window-height="681"
     id="namedview23"
     showgrid="false"
     inkscape:zoom="1.3350176"
     inkscape:cx="-24.406227"
     inkscape:cy="131.77531"
     inkscape:window-x="1920"
     inkscape:window-y="24"
     inkscape:window-maximized="1"
     inkscape:current-layer="Layer_1" /><style
     type="text/css"
     id="style3">
	.st0{fill:#FCC12D;}
	.st1{fill:#46E6F2;}
	.st2{fill:none;stroke:#231F20;stroke-width:3;stroke-linecap:round;stroke-linejoin:round;stroke-miterlimit:10;}
	.st3{fill:#FFFFFF;}
	.st4{fill:none;stroke:#FFFFFF;stroke-width:3;stroke-linecap:round;stroke-linejoin:round;stroke-miterlimit:10;}
</style><g
     id="g4142"><path
       style="fill:#46e6f2"
       inkscape:connector-curvature="0"
       id="XMLID_18_"
       d="m 63.432026,114.22042 -40.375841,0 c -2.9982,0 -5.496716,-2.39857 -5.496716,-5.49671 l 0,0 c 0,-2.99821 2.398566,-5.49671 5.496716,-5.49671 l 40.375841,0 c 2.998201,0 5.496711,2.39856 5.496711,5.49671 l 0,0 c 0,2.9982 -2.49851,5.49671 -5.496711,5.49671 z"
       class="st1" /><path
       style="fill:#46e6f2"
       inkscape:connector-curvature="0"
       id="XMLID_17_"
       d="m 60.433816,125.01396 -34.479361,0 c -2.79833,0 -4.99701,-2.29863 -4.99701,-4.99701 l 0,-0.59964 c 0,-2.79833 2.29862,-4.99701 4.99701,-4.99701 l 34.479361,0 c 2.79832,0 4.997011,2.29862 4.997011,4.99701 l 0,0.59964 c 0.0999,2.69838 -2.198691,4.99701 -4.997011,4.99701 z"
       class="st1" /><path
       style="fill:#46e6f2"
       inkscape:connector-curvature="0"
       id="XMLID_16_"
       d="m 29.052595,127.6124 0,0.0999 c 0,4.49731 3.59785,8.09516 8.09516,8.09516 l 12.192701,0 c 4.49731,0 8.09515,-3.59785 8.09515,-8.09516 l 0,-0.0999 c 0,-1.39916 -1.19928,-2.59844 -2.59844,-2.59844 l -23.186121,0 c -1.39917,0 -2.59845,1.19928 -2.59845,2.59844 z"
       class="st1" /><path
       style="fill:none;stroke:#231f20;stroke-width:2.99820542;stroke-linecap:round;stroke-linejoin:round;stroke-miterlimit:10"
       inkscape:connector-curvature="0"
       id="XMLID_15_"
       d="M 83.500897,42.444267 C 83.500897,18.25874 62.613406,-1.0297162 37.828235,1.7686098 19.3393,3.8673528 4.2483307,18.658501 1.8497666,37.147438 c -1.49910302,11.493119 1.8988631,22.18672 8.2950354,30.38181 7.295635,9.39438 10.993423,21.18732 10.993423,33.180142 l 0,1.69899 42.774401,0 0,-1.69899 c 0,-12.392582 4.397371,-24.185522 11.693001,-34.079602 4.99701,-6.79593 7.89527,-15.190911 7.89527,-24.185521 z"
       class="st2" /><path
       style="fill:none;stroke:#231f20;stroke-width:2.99820542;stroke-linecap:round;stroke-linejoin:round;stroke-miterlimit:10"
       inkscape:connector-curvature="0"
       id="XMLID_14_"
       d="m 59.615196,124.0954 -34.479361,0 c -2.79833,0 -4.99701,-2.29863 -4.99701,-4.99701 l 0,-0.59964 c 0,-2.79833 2.29862,-4.99701 4.99701,-4.99701 l 34.479361,0 c 2.79832,0 4.997011,2.29862 4.997011,4.99701 l 0,0.59964 c 0,2.79832 -2.198691,4.99701 -4.997011,4.99701 z"
       class="st2" /><path
       style="fill:none;stroke:#231f20;stroke-width:2.99820542;stroke-linecap:round;stroke-linejoin:round;stroke-miterlimit:10"
       inkscape:connector-curvature="0"
       id="XMLID_13_"
       d="m 28.134035,126.69384 0,0.0999 c 0,4.49731 3.59785,8.09516 8.09516,8.09516 l 12.192701,0 c 4.49731,0 8.09515,-3.59785 8.09515,-8.09516 l 0,-0.0999 c 0,-1.39916 -1.19928,-2.59844 -2.59844,-2.59844 l -23.186121,0 c -1.39917,0 -2.59845,1.19928 -2.59845,2.59844 z"
       class="st2" /><polyline
       transform="matrix(0.99940188,0,0,0.99940184,-80.401008,-65.391192)"
       style="fill:none;stroke:#231f20;stroke-width:3;stroke-linecap:round;stroke-linejoin:round;stroke-miterlimit:10;stroke-opacity:1"
       points="132.1,130 123,167.1 114,130 "
       id="XMLID_11_"
       class="st4" /><path
       inkscape:connector-curvature="0"
       style="fill:none;stroke:#231f20;stroke-width:2.99820542;stroke-linecap:round;stroke-linejoin:round;stroke-miterlimit:10;stroke-opacity:1"
       id="XMLID_10_"
       d="m 26.235175,60.033738 c 4.09755,0 4.09755,3.39797 8.09515,3.39797 4.09755,0 4.09755,-3.39797 8.095161,-3.39797 4.09755,0 4.09755,3.39797 8.09515,3.39797 4.09755,0 4.09755,-3.39797 8.09516,-3.39797"
       class="st4" /><path
       style="fill:none;stroke:#231f20;stroke-width:2.99820542;stroke-linecap:round;stroke-linejoin:round;stroke-miterlimit:10"
       inkscape:connector-curvature="0"
       id="XMLID_2_"
       d="m 62.513456,113.30186 -40.375831,0 c -2.998205,0 -5.49671,-2.39857 -5.49671,-5.49671 l 0,0 c 0,-2.99821 2.398565,-5.49671 5.49671,-5.49671 l 40.375831,0 c 2.998211,0 5.496711,2.39856 5.496711,5.49671 l 0,0 c 0,3.09814 -2.4985,5.49671 -5.496711,5.49671 z"
       class="st2" /></g></svg>