<?xml version="1.0" encoding="UTF-8" standalone="no"?>
<svg
   xmlns:dc="http://purl.org/dc/elements/1.1/"
   xmlns:cc="http://creativecommons.org/ns#"
   xmlns:rdf="http://www.w3.org/1999/02/22-rdf-syntax-ns#"
   xmlns:svg="http://www.w3.org/2000/svg"
   xmlns="http://www.w3.org/2000/svg"
   xmlns:sodipodi="http://sodipodi.sourceforge.net/DTD/sodipodi-0.dtd"
   xmlns:inkscape="http://www.inkscape.org/namespaces/inkscape"
   enable-background="new 0 0 64 64"
   height="31.363001"
   id="Layer_1"
   version="1.1"
   viewBox="0 0 46 31.363001"
   width="46"
   xml:space="preserve"
   inkscape:version="0.91 r13725"
   sodipodi:docname="control.svg"><metadata
     id="metadata21"><rdf:RDF><cc:Work
         rdf:about=""><dc:format>image/svg+xml</dc:format><dc:type
           rdf:resource="http://purl.org/dc/dcmitype/StillImage" /><dc:title /></cc:Work></rdf:RDF></metadata><defs
     id="defs19" /><sodipodi:namedview
     pagecolor="#ffffff"
     bordercolor="#666666"
     borderopacity="1"
     objecttolerance="10"
     gridtolerance="10"
     guidetolerance="10"
     inkscape:pageopacity="0"
     inkscape:pageshadow="2"
     inkscape:window-width="1366"
     inkscape:window-height="681"
     id="namedview17"
     showgrid="false"
     inkscape:zoom="3.6875"
     inkscape:cx="-5.0169492"
     inkscape:cy="32"
     inkscape:window-x="0"
     inkscape:window-y="24"
     inkscape:window-maximized="1"
     inkscape:current-layer="g4149" /><g
     id="g4149"
     transform="matrix(1,0,0,0.99998821,-9,-16.636035)"><path
       id="path5"
       d="m 32,39.799 c 9.2,0 9.55,3.051 13,6.102 3.45,3.051 10,4.063 10,-6.102 0,-10.166 -4.6,-16.273 -4.6,-16.273 0,0 -4.4,-7.526 -10.4,-1.641 -4.274,4.192 -11.726,4.192 -16,0 -6,-5.885 -10.4,1.642 -10.4,1.642 0,0 -4.6,6.107 -4.6,16.272 0,10.166 6.55,9.154 10,6.102 3.45,-3.05 3.8,-6.102 13,-6.102 z"
       inkscape:connector-curvature="0"
       style="opacity:0.2;fill:#231f20" /><path
       id="path7"
       d="m 32,36.799 c 9.2,0 9.55,3.051 13,6.102 3.45,3.051 10,4.063 10,-6.102 0,-10.166 -4.6,-16.273 -4.6,-16.273 0,0 -4.4,-7.526 -10.4,-1.641 -4.274,4.192 -11.726,4.192 -16,0 -6,-5.885 -10.4,1.642 -10.4,1.642 0,0 -4.6,6.107 -4.6,16.272 0,10.166 6.55,9.154 10,6.102 3.45,-3.05 3.8,-6.102 13,-6.102 z"
       inkscape:connector-curvature="0"
       style="fill:#1a1a1a" /><circle
       id="circle9"
       r="2"
       cy="34"
       cx="44"
       style="fill:#e0e0d1" /><circle
       id="circle11"
       r="2"
       cy="29"
       cx="48"
       style="fill:#e0e0d1" /><path
       id="path13"
       d="M 19,35.495 C 19,36.326 18.328,37 17.5,37 l 0,0 C 16.672,37 16,36.326 16,35.495 l 0,-6.991 C 16,27.674 16.672,27 17.5,27 l 0,0 c 0.828,0 1.5,0.674 1.5,1.505 l 0,6.99 z"
       inkscape:connector-curvature="0"
       style="fill:#e0e0d1" /><path
       id="path15"
       d="M 14.005,33.5 C 13.174,33.5 12.5,32.828 12.5,32 l 0,0 c 0,-0.828 0.674,-1.5 1.505,-1.5 l 6.991,0 c 0.831,0 1.505,0.672 1.505,1.5 l 0,0 c 0,0.828 -0.674,1.5 -1.505,1.5 l -6.991,0 z"
       inkscape:connector-curvature="0"
       style="fill:#e0e0d1" /></g></svg>