<?xml version="1.0" encoding="UTF-8" standalone="no"?>
<svg
   xmlns:dc="http://purl.org/dc/elements/1.1/"
   xmlns:cc="http://creativecommons.org/ns#"
   xmlns:rdf="http://www.w3.org/1999/02/22-rdf-syntax-ns#"
   xmlns:svg="http://www.w3.org/2000/svg"
   xmlns="http://www.w3.org/2000/svg"
   xmlns:sodipodi="http://sodipodi.sourceforge.net/DTD/sodipodi-0.dtd"
   xmlns:inkscape="http://www.inkscape.org/namespaces/inkscape"
   enable-background="new 0 0 48 48"
   height="48"
   version="1.1"
   viewBox="0 0 48 48"
   width="48"
   xml:space="preserve"
   id="svg2"
   inkscape:version="0.91 r13725"
   sodipodi:docname="gun.svg"><metadata
     id="metadata15"><rdf:RDF><cc:Work
         rdf:about=""><dc:format>image/svg+xml</dc:format><dc:type
           rdf:resource="http://purl.org/dc/dcmitype/StillImage" /><dc:title /></cc:Work></rdf:RDF></metadata><defs
     id="defs13" /><sodipodi:namedview
     pagecolor="#ffffff"
     bordercolor="#666666"
     borderopacity="1"
     objecttolerance="10"
     gridtolerance="10"
     guidetolerance="10"
     inkscape:pageopacity="0"
     inkscape:pageshadow="2"
     inkscape:window-width="1366"
     inkscape:window-height="681"
     id="namedview11"
     showgrid="false"
     inkscape:zoom="3.4766083"
     inkscape:cx="63.651114"
     inkscape:cy="34.283808"
     inkscape:window-x="0"
     inkscape:window-y="24"
     inkscape:window-maximized="1"
     inkscape:current-layer="svg2" /><g
     id="Layer_5"
     transform="matrix(-1,0,0,1,47.999106,0)"
     style="fill:#1a1a1a"><g
       id="gun"
       style="fill:#1a1a1a"><path
         d="m 47.385,14.217 0,-4.677 -0.008,0 c 0.006,-0.063 0.008,-0.128 0.008,-0.191 0,-1.07 -0.867,-1.938 -1.936,-1.938 l -43.524,0 c -1.071,0 -1.937,0.867 -1.937,1.938 0,0.063 0.003,0.128 0.01,0.191 l 0,4.677 47.387,0 z"
         id="path7"
         inkscape:connector-curvature="0"
         style="fill:#1a1a1a" /><path
         d="m 47.99,37.706 0.002,0 -0.002,-0.008 c -0.033,-0.287 -0.115,-0.553 -0.236,-0.8 l -4.693,-15.957 2.697,0 c 0.898,0 1.627,-0.729 1.627,-1.633 l 0,-3.153 -42.071,0 0,2.021 0,1.132 0,1.633 14.863,0 0,3.082 c 0,0.411 0.093,0.953 0.115,1.066 0.48,2.293 2.478,4.023 4.897,4.102 l -0.01,0.006 0.117,0 c 0.018,0 0.039,0 0.057,0 0.018,0 0.035,0 0.051,0 l 0.717,0 6.396,0 2.084,7.305 0.008,0 c 0.32,2.309 2.295,4.087 4.689,4.087 0.145,0 0.285,-0.01 0.428,-0.021 l 5.387,0 0,-0.005 c 0.109,0.017 0.215,0.026 0.322,0.026 1.424,0 2.576,-1.152 2.576,-2.578 10e-4,-0.104 -0.005,-0.205 -0.021,-0.305 z M 29.121,27.562 c 0.004,0 0.006,-0.004 0.006,-0.004 l -1.869,0 0,-0.004 c -0.033,0.004 -0.07,0.004 -0.107,0.008 l -0.998,0 c -1.677,-0.166 -3.114,-1.131 -3.934,-2.508 -0.236,-0.463 -0.246,-1.095 -0.246,-1.095 l 0,-3.019 8.188,0 1.891,6.621 -2.931,0 z"
         id="path9"
         inkscape:connector-curvature="0"
         style="fill:#1a1a1a" /></g></g></svg>