<?xml version="1.0" encoding="UTF-8" standalone="no"?>
<svg
   xmlns:dc="http://purl.org/dc/elements/1.1/"
   xmlns:cc="http://creativecommons.org/ns#"
   xmlns:rdf="http://www.w3.org/1999/02/22-rdf-syntax-ns#"
   xmlns:svg="http://www.w3.org/2000/svg"
   xmlns="http://www.w3.org/2000/svg"
   xmlns:sodipodi="http://sodipodi.sourceforge.net/DTD/sodipodi-0.dtd"
   xmlns:inkscape="http://www.inkscape.org/namespaces/inkscape"
   width="297.45001"
   height="337.34"
   viewBox="0 0 297.45001 337.34"
   version="1.1"
   id="svg2"
   inkscape:version="0.91 r13725"
   sodipodi:docname="html5.svg">
  <metadata
     id="metadata31">
    <rdf:RDF>
      <cc:Work
         rdf:about="">
        <dc:format>image/svg+xml</dc:format>
        <dc:type
           rdf:resource="http://purl.org/dc/dcmitype/StillImage" />
        <dc:title>Slice 1</dc:title>
      </cc:Work>
    </rdf:RDF>
  </metadata>
  <sodipodi:namedview
     pagecolor="#ffffff"
     bordercolor="#666666"
     borderopacity="1"
     objecttolerance="10"
     gridtolerance="10"
     guidetolerance="10"
     inkscape:pageopacity="0"
     inkscape:pageshadow="2"
     inkscape:window-width="1920"
     inkscape:window-height="993"
     id="namedview29"
     showgrid="false"
     inkscape:zoom="1.5893067"
     inkscape:cx="272.84302"
     inkscape:cy="210.29263"
     inkscape:window-x="0"
     inkscape:window-y="24"
     inkscape:window-maximized="1"
     inkscape:current-layer="svg2"
     inkscape:snap-global="false" />
  <title
     id="title4">Slice 1</title>
  <description>Created with Sketch (http://www.bohemiancoding.com/sketch)</description>
  <defs
     id="defs6" />
  <g
     id="g3380">
    <path
       style="fill:#e44f26;fill-rule:evenodd;stroke:none;stroke-width:1"
       inkscape:connector-curvature="0"
       id="Shape"
       d="m 27.383,303.606 -27.07,-303.62 297.45,0 -27.098,303.571 -121.809,33.769 -121.473,-33.72 z m 0,0" />
    <path
       style="fill:#f1662a;fill-rule:evenodd;stroke:none;stroke-width:1"
       inkscape:connector-curvature="0"
       id="path11"
       d="m 149.038,311.515 98.427,-27.288 23.158,-259.416 -121.585,0 0,286.704 z m 0,0" />
    <path
       style="fill:#ebebeb;fill-rule:evenodd;stroke:none;stroke-width:1"
       inkscape:connector-curvature="0"
       id="path13"
       d="m 149.038,137.42 -49.275,0 -3.404,-38.132 52.679,0 0,-37.239 -0.129,0 -93.246,0 0.892,9.991 9.152,102.616 83.331,0 0,-37.236 z m 0,0" />
    <path
       style="fill:#ebebeb;fill-rule:evenodd;stroke:none;stroke-width:1"
       inkscape:connector-curvature="0"
       id="path15"
       d="m 149.038,234.128 -0.163,0.046 -41.472,-11.199 -2.652,-29.698 -20.151,0 -17.229,0 5.217,58.467 76.278,21.176 0.172,-0.048 0,-38.744 z m 0,0" />
    <path
       style="fill:#ffffff;fill-rule:evenodd;stroke:none;stroke-width:1"
       inkscape:connector-curvature="0"
       id="path25"
       d="m 148.909,137.42 0,37.236 45.854,0 -4.322,48.294 -41.532,11.21 0,38.742 76.34,-21.158 0.559,-6.29 8.751,-98.035 0.908,-9.999 -10.034,0 -76.524,0 z m 0,0" />
    <path
       style="fill:#ffffff;fill-rule:evenodd;stroke:none;stroke-width:1"
       inkscape:connector-curvature="0"
       id="path27"
       d="m 148.909,62.049 0,23.128 0,14.019 0,0.092 89.827,0 0.12,0 0.747,-8.37 1.696,-18.878 0.891,-9.991 -93.281,0 z m 0,0" />
  </g>
</svg>
