<?xml version="1.0" encoding="UTF-8" standalone="no"?>
<!-- Generator: Adobe Illustrator 15.1.0, SVG Export Plug-In . SVG Version: 6.00 Build 0)  -->

<svg
   xmlns:dc="http://purl.org/dc/elements/1.1/"
   xmlns:cc="http://creativecommons.org/ns#"
   xmlns:rdf="http://www.w3.org/1999/02/22-rdf-syntax-ns#"
   xmlns:svg="http://www.w3.org/2000/svg"
   xmlns="http://www.w3.org/2000/svg"
   xmlns:sodipodi="http://sodipodi.sourceforge.net/DTD/sodipodi-0.dtd"
   xmlns:inkscape="http://www.inkscape.org/namespaces/inkscape"
   version="1.1"
   id="Layer_1"
   x="0px"
   y="0px"
   width="297.45001"
   height="337.34"
   viewBox="0 0 297.45001 337.34"
   enable-background="new 0 0 325 450"
   xml:space="preserve"
   inkscape:version="0.91 r13725"
   sodipodi:docname="Badge_js-strict.svg"><metadata
     id="metadata33"><rdf:RDF><cc:Work
         rdf:about=""><dc:format>image/svg+xml</dc:format><dc:type
           rdf:resource="http://purl.org/dc/dcmitype/StillImage" /><dc:title></dc:title></cc:Work></rdf:RDF></metadata><defs
     id="defs31" /><sodipodi:namedview
     pagecolor="#ffffff"
     bordercolor="#666666"
     borderopacity="1"
     objecttolerance="10"
     gridtolerance="10"
     guidetolerance="10"
     inkscape:pageopacity="0"
     inkscape:pageshadow="2"
     inkscape:window-width="1366"
     inkscape:window-height="681"
     id="namedview29"
     showgrid="false"
     showguides="true"
     inkscape:guide-bbox="true"
     inkscape:zoom="2"
     inkscape:cx="145.00151"
     inkscape:cy="195.09798"
     inkscape:window-x="1920"
     inkscape:window-y="24"
     inkscape:window-maximized="1"
     inkscape:current-layer="Layer_1" /><polygon
     style="fill:#efc725"
     id="polygon5"
     points="284.127,401.205 162.318,434.975 40.845,401.254 13.775,97.632 311.225,97.632 "
     transform="matrix(1,0,0,0.99999111,-13.775,-97.631137)" /><polygon
     style="fill:#fbde34"
     id="polygon7"
     points="260.678,381.5 283.836,122.083 162.25,122.083 162.25,408.787 "
     transform="matrix(1,0,0,0.99999111,-13.775,-97.631137)" /><path
     style="fill:#ebebeb"
     d="m 75.628906,38.822266 -13.35562,98.242664 13.35562,114.45655 72.617184,21.0625 0.17188,0.0645 0,-38.74414 -0.16211,0.0488 -37.38575,-11.20117 -5.71585,-48.44922 48.27933,0 0,-37.23782 -48.27933,0 5.71585,-58.43998 42.667,-1.080078 -0.10352,-38.722656 z"
     id="polygon9"
     inkscape:connector-curvature="0"
     sodipodi:nodetypes="cccccccccccccccc" /><path
     style="fill:#ffffff"
     d="M 153.35352 38.804688 L 153.29102 38.822266 L 148.45703 38.822266 L 148.45703 62.972656 L 148.45703 77.613281 L 148.45703 77.710938 L 156.00586 77.710938 L 194.01562 80 L 197.4668 118.44531 L 217.61719 118.44531 L 234.84766 118.44531 L 229.40039 58.283203 L 227.78906 38.822266 L 153.52539 38.822266 L 153.35352 38.804688 z "
     id="polygon13" /><polygon
     style="fill:#ffffff"
     id="polygon17"
     points="207.918,271.954 203.596,320.247 162.064,331.459 162.064,370.201 238.404,349.043 238.963,342.752 247.715,244.717 248.623,234.718 238.588,234.718 162.064,234.718 162.064,271.954 "
     transform="matrix(1,0,0,0.99999111,-13.775,-97.631137)" /><path
     style="fill:#ffffff"
     inkscape:connector-curvature="0"
     id="path19"
     d="M 226.225,76.060313" /><path
     style="fill:#ffffff"
     inkscape:connector-curvature="0"
     id="path27"
     d="M 225.735,76.060313" /></svg>