<?xml version="1.0" encoding="UTF-8" standalone="no"?>
<svg
   xmlns:dc="http://purl.org/dc/elements/1.1/"
   xmlns:cc="http://creativecommons.org/ns#"
   xmlns:rdf="http://www.w3.org/1999/02/22-rdf-syntax-ns#"
   xmlns:svg="http://www.w3.org/2000/svg"
   xmlns="http://www.w3.org/2000/svg"
   xmlns:sodipodi="http://sodipodi.sourceforge.net/DTD/sodipodi-0.dtd"
   xmlns:inkscape="http://www.inkscape.org/namespaces/inkscape"
   enable-background="new 0 0 64 64"
   height="50"
   id="Layer_1"
   version="1.1"
   viewBox="0 0 28 50"
   width="28"
   xml:space="preserve"
   inkscape:version="0.91 r13725"
   sodipodi:docname="if_spaceshuttle_1054974.svg"><metadata
     id="metadata41"><rdf:RDF><cc:Work
         rdf:about=""><dc:format>image/svg+xml</dc:format><dc:type
           rdf:resource="http://purl.org/dc/dcmitype/StillImage" /><dc:title></dc:title></cc:Work></rdf:RDF></metadata><defs
     id="defs39" /><sodipodi:namedview
     pagecolor="#ffffff"
     bordercolor="#666666"
     borderopacity="1"
     objecttolerance="10"
     gridtolerance="10"
     guidetolerance="10"
     inkscape:pageopacity="0"
     inkscape:pageshadow="2"
     inkscape:window-width="1366"
     inkscape:window-height="681"
     id="namedview37"
     showgrid="false"
     inkscape:zoom="3.6875"
     inkscape:cx="-0.27118644"
     inkscape:cy="32"
     inkscape:window-x="1920"
     inkscape:window-y="24"
     inkscape:window-maximized="1"
     inkscape:current-layer="Layer_1" /><path
     d="m 8,45.735 c 0,1.398 -1.119,2.531 -2.5,2.531 l 0,0 C 4.119,48.266 3,47.133 3,45.735 L 3,12.265 C 3,10.867 4.119,9.734 5.5,9.734 l 0,0 c 1.381,0 2.5,1.133 2.5,2.531 l 0,33.47 z"
     id="path5"
     inkscape:connector-curvature="0"
     style="opacity:0.2;fill:#231f20" /><path
     d="m 25,45.735 c 0,1.398 -1.119,2.531 -2.5,2.531 l 0,0 c -1.381,0 -2.5,-1.133 -2.5,-2.531 l 0,-33.47 c 0,-1.398 1.119,-2.531 2.5,-2.531 l 0,0 c 1.381,0 2.5,1.133 2.5,2.531 l 0,33.47 z"
     id="path7"
     inkscape:connector-curvature="0"
     style="opacity:0.2;fill:#231f20" /><path
     d="m 8,44 c 0,1.398 -1.119,2.531 -2.5,2.531 l 0,0 C 4.119,46.531 3,45.398 3,44 L 3,10.531 C 3,9.133 4.119,7 5.5,7 l 0,0 C 6.881,7 8,9.133 8,10.531 L 8,44 Z"
     id="path9"
     inkscape:connector-curvature="0"
     style="fill:#e0e0d1" /><path
     d="m 25,44 c 0,1.398 -1.119,2.531 -2.5,2.531 l 0,0 C 21.119,46.531 20,45.398 20,44 L 20,10.531 C 20,9.133 21.119,7 22.5,7 l 0,0 C 23.881,7 25,9.133 25,10.531 L 25,44 Z"
     id="path11"
     inkscape:connector-curvature="0"
     style="fill:#e0e0d1" /><path
     d="M 20,36.031 C 20,39.328 17.314,42 14,42 l 0,0 C 10.686,42 8,39.328 8,36.031 L 8,9 C 8,5.703 10.686,0 14,0 l 0,0 c 3.314,0 6,5.703 6,9 l 0,27.031 z"
     id="path13"
     inkscape:connector-curvature="0"
     style="fill:#e0995e" /><path
     d="m 16.563,44 c 0,1.105 -0.895,2 -2,2 L 3,46 C 1.895,46 0,45.105 0,44 l 0,-3 c 0,-1.105 1.823,-2.216 3,-3 6,-4 6,-12 6,-12 1.105,0 7.563,4.895 7.563,6 l 0,12 z"
     id="path15"
     inkscape:connector-curvature="0"
     style="opacity:0.2;fill:#231f20" /><path
     d="m 11.437,44 c 0,1.105 0.895,2 2,2 L 25,46 c 1.105,0 3,-0.895 3,-2 l 0,-3 c 0,-1.105 -1.823,-2.216 -3,-3 -6,-4 -6,-12 -6,-12 -1.105,0 -7.563,4.895 -7.563,6 l 0,12 z"
     id="path17"
     inkscape:connector-curvature="0"
     style="opacity:0.2;fill:#231f20" /><path
     d="M 19,47.469 C 19,48.867 16.761,50 14,50 l 0,0 C 11.239,50 9,48.867 9,47.469 L 9,17 c 0,-1.398 2.239,-7 5,-7 l 0,0 c 2.761,0 5,5.602 5,7 l 0,30.469 z"
     id="path19"
     inkscape:connector-curvature="0"
     style="opacity:0.2;fill:#231f20" /><path
     d="m 16.563,40 c 0,1.105 -0.895,2 -2,2 L 3,42 C 1.895,42 0,41.105 0,40 l 0,-3 c 0,-1.105 1.823,-2.216 3,-3 6,-4 6,-12 6,-12 1.105,0 7.563,4.895 7.563,6 l 0,12 z"
     id="path21"
     inkscape:connector-curvature="0"
     style="opacity:0.2;fill:#231f20" /><path
     d="m 11.437,40 c 0,1.105 0.895,2 2,2 L 25,42 c 1.105,0 3,-0.895 3,-2 l 0,-3 c 0,-1.105 -1.823,-2.216 -3,-3 -6,-4 -6,-12 -6,-12 -1.105,0 -7.563,4.895 -7.563,6 l 0,12 z"
     id="path23"
     inkscape:connector-curvature="0"
     style="opacity:0.2;fill:#231f20" /><g
     id="g25"
     style="opacity:0.2"
     transform="translate(-18,-7)"><path
       d="M 26,51 26,17.531 C 26,16.706 25.604,15.462 25,15 l 0,38.013 C 25.604,52.551 26,51.825 26,51 Z"
       id="path27"
       inkscape:connector-curvature="0"
       style="fill:#231f20" /><path
       d="M 38,17.531 38,51 c 0,0.825 0.396,1.551 1,2.013 L 39,15 c -0.604,0.462 -1,1.706 -1,2.531 z"
       id="path29"
       inkscape:connector-curvature="0"
       style="fill:#231f20" /></g><path
     d="m 16.563,42 c 0,1.105 -0.895,2 -2,2 L 3,44 C 1.895,44 0,43.105 0,42 l 0,-3 c 0,-1.105 1.823,-2.216 3,-3 6,-4 6,-12 6,-12 1.105,0 7.563,4.895 7.563,6 l 0,12 z"
     id="path31"
     inkscape:connector-curvature="0"
     style="fill:#e0e0d1" /><path
     d="m 11.437,42 c 0,1.105 0.895,2 2,2 L 25,44 c 1.105,0 3,-0.895 3,-2 l 0,-3 c 0,-1.105 -1.823,-2.216 -3,-3 -6,-4 -6,-12 -6,-12 -1.105,0 -7.563,4.895 -7.563,6 l 0,12 z"
     id="path33"
     inkscape:connector-curvature="0"
     style="fill:#e0e0d1" /><path
     d="M 19,45.469 C 19,46.867 16.761,48 14,48 l 0,0 C 11.239,48 9,46.867 9,45.469 L 9,15 c 0,-1.398 2.239,-7 5,-7 l 0,0 c 2.761,0 5,5.602 5,7 l 0,30.469 z"
     id="path35"
     inkscape:connector-curvature="0"
     style="fill:#ffffff" /></svg>